# xmcd
#
# Track frame offsets: 
#        150
#        9980
#        30117
#        48365
#        68367
#        83867
#        97785
#        122832
#        147522
#        178952
#
# Disc length: 2603 seconds
#
# Revision: 1
# Processed by: cddbd v1.5.2PL0 Copyright (c) Steve Scherf et al.
# Submitted via: ExactAudioCopy v0.99pb4
#
DISCID=730a290a
DTITLE=Fleetwood Mac - Shrine '69 (1999)
DYEAR=1999
DGENRE=Blues
TTITLE0=Tune Up
TTITLE1=If You Be My Baby
TTITLE2=Something Inside Of Me
TTITLE3=My Sweet Baby
TTITLE4=Albatross
TTITLE5=Before The Beginning
TTITLE6=Rollin' Man
TTITLE7=Lemon Squeezer
TTITLE8=Need Your Love So Bad
TTITLE9=Great Balls Of Fire
EXTD=YEAR: 1999
EXTT0=
EXTT1=
EXTT2=
EXTT3=
EXTT4=
EXTT5=
EXTT6=
EXTT7=
EXTT8=
EXTT9=
PLAYORDER=
